<svg width="325" height="350" viewBox="0 0 325 350" fill="none" xmlns="http://www.w3.org/2000/svg">
<path d="M161.967 312.705C145.167 312.705 130.567 310.305 118.167 305.505C105.967 300.705 96.6668 294.305 90.2668 286.305C83.8668 278.305 80.6668 269.705 80.6668 260.505C80.6668 252.905 82.6668 247.105 86.6668 243.105C90.6668 238.905 96.7668 236.805 104.967 236.805C104.967 253.805 110.067 266.805 120.267 275.805C130.467 284.605 144.767 289.005 163.167 289.005C180.767 289.005 194.267 286.105 203.667 280.305C213.067 274.305 217.767 265.505 217.767 253.905C217.767 246.905 215.967 241.205 212.367 236.805C208.967 232.205 203.067 228.305 194.667 225.105C186.467 221.705 174.567 218.305 158.967 214.905C140.567 210.905 125.967 206.305 115.167 201.105C104.367 195.705 96.4668 189.205 91.4668 181.605C86.4668 174.005 83.9668 164.605 83.9668 153.405C83.9668 142.205 87.0668 132.405 93.2668 124.005C99.6668 115.405 108.667 108.805 120.267 104.205C131.867 99.6049 145.367 97.3049 160.767 97.3049C175.367 97.3049 188.367 99.4049 199.767 103.605C211.367 107.605 220.367 113.405 226.767 121.005C233.367 128.405 236.667 136.805 236.667 146.205C236.667 152.005 234.767 156.605 230.967 160.005C227.367 163.205 221.667 164.805 213.867 164.805C211.667 149.605 206.267 138.505 197.667 131.505C189.267 124.505 176.967 121.005 160.767 121.005C145.167 121.005 133.167 123.805 124.767 129.405C116.367 134.805 112.167 142.505 112.167 152.505C112.167 159.505 113.667 165.305 116.667 169.905C119.867 174.305 125.167 178.105 132.567 181.305C140.167 184.505 150.767 187.605 164.367 190.605C184.767 195.005 200.767 199.905 212.367 205.305C224.167 210.705 232.667 217.305 237.867 225.105C243.067 232.905 245.667 242.505 245.667 253.905C245.667 272.105 238.067 286.505 222.867 297.105C207.667 307.505 187.367 312.705 161.967 312.705Z" fill="#1ED760"/>
<path d="M236.983 5.54696C236.983 5.54696 243.708 116.604 151.048 103.769C151.048 103.769 156.91 70.6392 197.479 32.787C197.479 32.787 153.137 55.8539 144.03 102.331C144.03 102.331 107.564 -4.1592 236.983 5.54696Z" fill="#1ED760"/>
</svg>
