<svg width="1029" height="318" viewBox="0 0 1029 318" fill="none" xmlns="http://www.w3.org/2000/svg">
<path d="M106.447 280.7C89.6473 280.7 75.0473 278.3 62.6473 273.5C50.4473 268.7 41.1473 262.3 34.7473 254.3C28.3473 246.3 25.1473 237.7 25.1473 228.5C25.1473 220.9 27.1473 215.1 31.1473 211.1C35.1473 206.9 41.2473 204.8 49.4473 204.8C49.4473 221.8 54.5473 234.8 64.7473 243.8C74.9473 252.6 89.2473 257 107.647 257C125.247 257 138.747 254.1 148.147 248.3C157.547 242.3 162.247 233.5 162.247 221.9C162.247 214.9 160.447 209.2 156.847 204.8C153.447 200.2 147.547 196.3 139.147 193.1C130.947 189.7 119.047 186.3 103.447 182.9C85.0473 178.9 70.4473 174.3 59.6473 169.1C48.8473 163.7 40.9473 157.2 35.9473 149.6C30.9473 142 28.4473 132.6 28.4473 121.4C28.4473 110.2 31.5473 100.4 37.7473 92C44.1473 83.4 53.1473 76.8 64.7473 72.2C76.3473 67.6 89.8473 65.3 105.247 65.3C119.847 65.3 132.847 67.4 144.247 71.6C155.847 75.6 164.847 81.4 171.247 89C177.847 96.4 181.147 104.8 181.147 114.2C181.147 120 179.247 124.6 175.447 128C171.847 131.2 166.147 132.8 158.347 132.8C156.147 117.6 150.747 106.5 142.147 99.5C133.747 92.5 121.447 89 105.247 89C89.6473 89 77.6473 91.8 69.2473 97.4C60.8473 102.8 56.6473 110.5 56.6473 120.5C56.6473 127.5 58.1473 133.3 61.1473 137.9C64.3473 142.3 69.6473 146.1 77.0473 149.3C84.6473 152.5 95.2473 155.6 108.847 158.6C129.247 163 145.247 167.9 156.847 173.3C168.647 178.7 177.147 185.3 182.347 193.1C187.547 200.9 190.147 210.5 190.147 221.9C190.147 240.1 182.547 254.5 167.347 265.1C152.147 275.5 131.847 280.7 106.447 280.7ZM224.514 87.5C224.514 80.3 226.714 74.8 231.114 71C235.514 67.2 242.014 65.3 250.614 65.3V144.2C247.814 147.4 245.614 150.2 244.014 152.6L245.214 153.8C251.414 145.4 259.214 138.6 268.614 133.4C278.014 128 288.214 125.3 299.214 125.3C315.414 125.3 328.214 130.1 337.614 139.7C347.014 149.3 351.714 161.7 351.714 176.9V261.5C351.714 268.1 349.514 273 345.114 276.2C340.914 279.2 334.414 280.7 325.614 280.7V179.6C325.614 170 322.914 162.4 317.514 156.8C312.114 151.2 303.914 148.4 292.914 148.4C285.514 148.4 278.514 150 271.914 153.2C265.514 156.2 260.314 160.4 256.314 165.8C252.514 171 250.614 176.7 250.614 182.9V261.5C250.614 268.1 248.414 273 244.014 276.2C239.814 279.2 233.314 280.7 224.514 280.7V87.5ZM440.427 280.7C423.227 280.7 409.327 276.1 398.727 266.9C388.327 257.7 383.127 245.6 383.127 230.6C383.127 215.4 388.627 203.2 399.627 194C410.627 184.6 425.127 179.9 443.127 179.9C462.327 179.9 478.127 186.7 490.527 200.3L491.727 199.1C489.527 196.7 487.027 194.2 484.227 191.6V179C484.227 168.8 481.027 160.9 474.627 155.3C468.227 149.7 459.127 146.9 447.327 146.9C426.327 146.9 411.327 155.2 402.327 171.8C399.127 170.2 396.427 168.1 394.227 165.5C392.227 162.7 391.227 159.9 391.227 157.1C391.227 151.7 393.927 146.6 399.327 141.8C404.727 136.8 411.827 132.8 420.627 129.8C429.627 126.8 439.027 125.3 448.827 125.3C467.827 125.3 482.727 130 493.527 139.4C504.527 148.8 510.027 161.8 510.027 178.4V260.6C510.027 267.6 508.027 272.7 504.027 275.9C500.027 279.1 493.727 280.7 485.127 280.7V266.6C489.327 262.2 491.627 259.6 492.027 258.8L490.827 257.6C477.827 273 461.027 280.7 440.427 280.7ZM444.927 260C457.327 260 467.027 257.4 474.027 252.2C481.227 247 484.827 239.8 484.827 230.6C484.827 221.4 481.327 214.1 474.327 208.7C467.327 203.3 457.727 200.6 445.527 200.6C434.127 200.6 425.127 203.3 418.527 208.7C412.127 213.9 408.927 221.2 408.927 230.6C408.927 240 412.027 247.3 418.227 252.5C424.627 257.5 433.527 260 444.927 260ZM594.088 280.7C579.488 280.7 568.588 276.7 561.388 268.7C554.188 260.5 550.588 249.8 550.588 236.6V84.5C550.588 77.9 552.688 73.1 556.888 70.1C561.288 66.9 567.888 65.3 576.688 65.3V235.7C576.688 243.5 578.288 249.1 581.488 252.5C584.688 255.9 589.988 257.6 597.388 257.6C604.788 257.6 611.588 255.8 617.788 252.2C620.388 255.2 621.688 258.7 621.688 262.7C621.688 267.5 619.188 271.7 614.188 275.3C609.188 278.9 602.488 280.7 594.088 280.7ZM807.814 147.5C807.814 132.7 816.114 125.3 832.714 125.3V144.5C830.114 147.3 828.014 150 826.414 152.6L827.614 153.8C834.014 144.8 840.814 137.8 848.014 132.8C855.214 127.8 863.514 125.3 872.914 125.3C891.114 125.3 903.614 134 910.414 151.4C921.814 134 937.014 125.3 956.014 125.3C970.214 125.3 981.114 130.1 988.714 139.7C996.514 149.1 1000.41 161.5 1000.41 176.9V261.5C1000.41 268.1 998.214 273 993.814 276.2C989.614 279.2 983.214 280.7 974.614 280.7V178.4C974.614 168.8 972.614 161.3 968.614 155.9C964.614 150.5 958.314 147.8 949.714 147.8C940.714 147.8 933.014 150.9 926.614 157.1C920.214 163.1 917.014 171.2 917.014 181.4V261.5C917.014 268.1 914.914 273 910.714 276.2C906.514 279.2 900.114 280.7 891.514 280.7V178.4C891.514 168.8 889.514 161.3 885.514 155.9C881.514 150.5 875.214 147.8 866.614 147.8C857.414 147.8 849.614 151.1 843.214 157.7C836.814 164.3 833.614 172.4 833.614 182V261.5C833.614 268.1 831.414 273 827.014 276.2C822.814 279.2 816.414 280.7 807.814 280.7V147.5Z" fill="#1ED760"/>
<path d="M777.316 138.027C777.316 138.027 786.372 287.58 661.593 270.296C661.593 270.296 669.487 225.682 724.118 174.709C724.118 174.709 664.406 205.772 652.143 268.36C652.143 268.36 603.035 124.956 777.316 138.027Z" fill="#1ED760"/>
</svg>
